<?xml version="1.0" encoding="iso-8859-1"?>
<!-- Uploaded to: SVG Repo, www.svgrepo.com, Generator: SVG Repo Mixer Tools -->
<svg version="1.1" id="Layer_1" xmlns="http://www.w3.org/2000/svg" xmlns:xlink="http://www.w3.org/1999/xlink" 
	 viewBox="0 0 512 512" xml:space="preserve">
<rect x="126.338" y="375.688" style="fill:#56545A;" width="239.377" height="39.896"/>
<polygon style="fill:#F2F2F4;" points="113.039,109.714 19.948,69.818 0,69.818 0,269.299 19.948,269.299 113.039,229.403 
	119.688,229.403 119.688,109.714 "/>
<path style="fill:#F2B3D8;" d="M113.039,109.714h172.036c19.586-39.408,60.246-66.494,107.237-66.494
	C458.414,43.221,512,96.807,512,162.909s-53.586,119.688-119.688,119.688c-41.496,0-78.057-21.121-99.527-53.195H113.039V109.714z"
	/>
<path style="fill:#E176AF;" d="M352.416,269.299v159.584c0,22.033,17.861,39.896,39.896,39.896
	c22.035,0,39.896-17.863,39.896-39.896v-159.58L352.416,269.299z"/>
<path style="fill:#E592BF;" d="M392.312,43.221c-46.992,0-87.652,27.085-107.237,66.494h-72.296v119.688h80.005
	c21.471,32.074,58.032,53.195,99.527,53.195c66.103,0,119.688-53.586,119.688-119.688S458.414,43.221,392.312,43.221z"/>
<path style="fill:#F2F2F4;" d="M392.312,189.506c-14.666,0-26.597-11.932-26.597-26.597s11.932-26.597,26.597-26.597
	s26.597,11.932,26.597,26.597S406.978,189.506,392.312,189.506z"/>
<g>
	<rect y="342.442" style="fill:#CFCDD2;" width="66.494" height="39.896"/>
	<rect y="408.935" style="fill:#CFCDD2;" width="66.494" height="39.896"/>
</g>
<path style="fill:#88888F;" d="M66.494,322.493H46.545v146.286h19.948c40.331,0,73.143-32.812,73.143-73.143
	S106.824,322.493,66.494,322.493z"/>
</svg>